<svg width="78" height="78" viewBox="0 0 78 78" fill="none" xmlns="http://www.w3.org/2000/svg">
<path d="M51.519 29.1882H36.608V0H51.519C59.566 0 66.1115 6.5455 66.1115 14.5925C66.1115 22.6395 59.566 29.1882 51.519 29.1882ZM41.3888 24.4075H51.519C56.9303 24.4075 61.3308 20.0037 61.3308 14.5958C61.3308 9.18775 56.927 4.784 51.519 4.784H41.3888V24.4075ZM41.3888 29.1882H26.481C18.434 29.1882 11.8885 22.6428 11.8885 14.5958C11.8885 6.54875 18.434 0 26.481 0H41.392V29.1882H41.3888ZM26.481 4.78075C21.0698 4.78075 16.6693 9.1845 16.6693 14.5925C16.6693 20.0005 21.0698 24.4075 26.481 24.4075H36.6113V4.78075H26.481ZM41.3888 53.5925H26.481C18.434 53.5925 11.8885 47.047 11.8885 39C11.8885 30.953 18.434 24.4075 26.481 24.4075H41.392V53.5925H41.3888ZM26.481 29.1882C21.0698 29.1882 16.6693 33.592 16.6693 39C16.6693 44.408 21.073 48.8117 26.481 48.8117H36.6113V29.1882H26.481ZM26.559 78C18.4698 78 11.8853 71.4545 11.8853 63.4075C11.8853 55.3605 18.4308 48.815 26.4778 48.815H41.3888V63.2483C41.3888 71.383 34.736 78 26.559 78ZM26.481 53.5925C23.8798 53.5959 21.3862 54.6308 19.5468 56.4701C17.7075 58.3094 16.6727 60.8031 16.6693 63.4043C16.6693 68.8155 21.1055 73.216 26.5623 73.216C32.1035 73.216 36.6145 68.744 36.6145 63.245V53.5925H26.481ZM51.519 53.5925H51.2005C43.1535 53.5925 36.608 47.047 36.608 39C36.608 30.953 43.1535 24.4075 51.2005 24.4075H51.519C59.566 24.4075 66.1115 30.953 66.1115 39C66.1115 47.047 59.566 53.5925 51.519 53.5925ZM51.2038 29.1882C45.7925 29.1882 41.392 33.592 41.392 39C41.392 44.408 45.7958 48.8117 51.2038 48.8117H51.5223C56.9335 48.8117 61.334 44.408 61.334 39C61.334 33.592 56.927 29.1882 51.519 29.1882H51.2038Z" fill="#F24E1E"/>
</svg>
