<svg width="76" height="76" viewBox="0 0 76 76" fill="none" xmlns="http://www.w3.org/2000/svg">
<g clip-path="url(#clip0_13_47)">
<path d="M74.5623 34.6117L41.3788 1.43136C39.4662 -0.478138 36.3692 -0.478138 34.4502 1.43136L27.5753 8.31886L36.3153 17.0589C38.3578 16.378 40.6822 16.8372 42.2972 18.4554C43.9312 20.0862 44.3808 22.439 43.6842 24.472L52.1012 32.8954C54.1437 32.1892 56.4933 32.6484 58.1178 34.2729C60.401 36.5529 60.401 40.2389 58.1178 42.5189C55.841 44.7957 52.1613 44.7957 49.8845 42.5189C48.1777 40.8057 47.7502 38.285 48.6052 36.1982L40.7233 28.3575V49.02C41.2807 49.2924 41.8063 49.6629 42.2687 50.122C44.5265 52.4052 44.5265 56.0849 42.2687 58.3554C39.9918 60.6385 36.2868 60.6385 34.0068 58.3554C31.73 56.0785 31.73 52.4052 34.0068 50.1284C34.5832 49.5584 35.2323 49.1277 35.9227 48.8427V27.9775C35.2355 27.6894 34.58 27.2745 34.0227 26.7077C32.2968 24.9819 31.882 22.458 32.7687 20.3459L24.1807 11.7167L1.425 34.4565C-0.475 36.3724 -0.475 39.4725 1.425 41.3884L34.6117 74.5655C36.5243 76.4782 39.6213 76.4782 41.534 74.5655L74.5623 41.5372C76.4782 39.6277 76.4782 36.5275 74.5623 34.6117Z" fill="#F05032"/>
</g>
<defs>
<clipPath id="clip0_13_47">
<rect width="76" height="76" fill="white"/>
</clipPath>
</defs>
</svg>
