<svg width="35" height="35" viewBox="0 0 35 35" fill="none" xmlns="http://www.w3.org/2000/svg">
<g clip-path="url(#clip0_13_106)">
<path d="M17.5 0.433121C7.83125 0.433121 0 8.26875 0 17.9331C0 25.6667 5.01375 32.2248 11.9656 34.5362C12.8406 34.701 13.1615 34.16 13.1615 33.6948C13.1615 33.2792 13.1469 32.1781 13.1396 30.7198C8.27167 31.7756 7.245 28.3719 7.245 28.3719C6.44875 26.3521 5.29812 25.8125 5.29812 25.8125C3.71292 24.7275 5.42063 24.7494 5.42063 24.7494C7.17792 24.8719 8.10104 26.5519 8.10104 26.5519C9.66146 29.2279 12.1975 28.455 13.1979 28.0073C13.3554 26.8756 13.806 26.1042 14.3063 25.6667C10.4198 25.2292 6.335 23.7242 6.335 17.0187C6.335 15.1083 7.01313 13.5479 8.13604 12.3229C7.93917 11.881 7.34854 10.1019 8.28917 7.69125C8.28917 7.69125 9.75479 7.22166 13.1017 9.485C14.5017 9.09562 15.9892 8.90312 17.4767 8.89437C18.9642 8.90312 20.4517 9.09562 21.8517 9.485C25.1767 7.22166 26.6423 7.69125 26.6423 7.69125C27.5829 10.1019 26.9923 11.881 26.8173 12.3229C27.9329 13.5479 28.611 15.1083 28.611 17.0187C28.611 23.7417 24.5204 25.2219 20.6267 25.6521C21.2392 26.1771 21.8079 27.2504 21.8079 28.8896C21.8079 31.2317 21.786 33.1129 21.786 33.6817C21.786 34.141 22.0923 34.6879 22.9892 34.5129C29.9906 32.2175 35 25.655 35 17.9331C35 8.26875 27.1644 0.433121 17.5 0.433121Z" fill="white"/>
</g>
<defs>
<clipPath id="clip0_13_106">
<rect width="35" height="35" fill="white"/>
</clipPath>
</defs>
</svg>
