<svg width="84" height="84" viewBox="0 0 84 84" fill="none" xmlns="http://www.w3.org/2000/svg">
<g clip-path="url(#clip0_41_4)">
<path d="M0 0H84V84H0V0ZM77.119 63.966C76.5065 60.1335 74.011 56.9135 66.6085 53.9105C64.0325 52.703 61.1695 51.863 60.319 49.9205C60.0005 48.7655 59.9515 48.1355 60.158 47.453C60.683 45.192 63.3605 44.513 65.4605 45.143C66.8255 45.563 68.0855 46.613 68.8765 48.293C72.4955 45.927 72.4955 45.927 75.019 44.3555C74.074 42.8855 73.605 42.252 72.968 41.6255C70.763 39.158 67.8265 37.898 63.049 38.0065L60.5815 38.318C58.2155 38.8955 55.9615 40.1555 54.5965 41.8355C50.6065 46.354 51.758 54.229 56.588 57.484C61.3655 61.054 68.3515 61.838 69.244 65.2015C70.084 69.2965 66.199 70.609 62.363 70.1365C59.5245 69.5065 57.953 68.0855 56.2205 65.4605L49.8155 69.139C50.5505 70.819 51.3905 71.5505 52.6505 73.0205C58.7405 79.1665 73.9655 78.8515 76.699 69.5065C76.8005 69.1915 77.539 67.039 76.958 63.7315L77.119 63.966ZM45.6785 38.6085H37.8105C37.8105 45.3915 37.779 52.1325 37.779 58.926C37.779 63.238 37.9995 67.1965 37.296 68.4145C36.141 70.826 33.166 70.518 31.815 70.0945C30.429 69.4085 29.7255 68.4635 28.91 67.102C28.6895 66.7345 28.525 66.416 28.4655 66.416L22.078 70.3535C23.1455 72.5585 24.703 74.4555 26.712 75.663C29.7045 77.448 33.726 78.0255 37.9365 77.0805C40.677 76.2895 43.0395 74.662 44.275 72.142C46.06 68.887 45.682 64.897 45.6645 60.431C45.7065 53.242 45.6645 46.0495 45.6645 38.8045L45.6785 38.6085Z" fill="#F7DF1E"/>
</g>
<defs>
<clipPath id="clip0_41_4">
<rect width="84" height="84" fill="white"/>
</clipPath>
</defs>
</svg>
