<svg width="90" height="90" viewBox="0 0 90 90" fill="none" xmlns="http://www.w3.org/2000/svg">
<g clip-path="url(#clip0_41_2)">
<path d="M43.3961 0C42.735 0 42.2344 0.004875 42.0521 0.025125C41.8586 0.045 41.2425 0.103875 40.6886 0.148125C27.9056 1.3005 15.9323 8.19675 8.34863 18.7961C4.12575 24.69 1.425 31.3748 0.405 38.4563C0.04425 40.9275 0 41.6576 0 45.009C0 48.3604 0.045 49.0905 0.405 51.5625C2.85 68.46 14.8766 82.6571 31.1876 87.9169C34.1085 88.8585 37.1876 89.5005 40.689 89.8875C42.0525 90.0375 47.9468 90.0375 49.3103 89.8875C55.3541 89.2189 60.4748 87.7237 65.5241 85.1464C66.2985 84.7504 66.4481 84.645 66.3428 84.5565C66.2723 84.5044 62.9726 80.0798 59.0141 74.7315L51.8179 65.0115L42.8003 51.6679C37.8386 44.3314 33.7564 38.3329 33.7211 38.3329C33.6859 38.3231 33.651 44.253 33.633 51.4916C33.6079 64.1674 33.5981 64.6774 33.4395 64.9766C33.2108 65.4079 33.0345 65.5834 32.6655 65.7769C32.3843 65.9171 32.1375 65.9437 30.8092 65.9437H29.2868L28.8825 65.6888C28.6318 65.5317 28.4281 65.3099 28.293 65.0468L28.1081 64.6508L28.128 47.0145L28.1531 29.3692L28.4254 29.0261C28.5664 28.8413 28.8656 28.6043 29.0764 28.4899C29.4371 28.3136 29.5781 28.296 31.0999 28.296C32.895 28.296 33.1939 28.3661 33.66 28.8761C33.7924 29.0175 38.6749 36.3713 44.5163 45.2291C50.4307 54.1947 56.3487 63.158 62.2703 72.1189L69.396 82.9121L69.756 82.6748C72.9503 80.5988 76.3279 77.643 79.0024 74.5646C84.6945 68.0287 88.3635 60.0596 89.595 51.5621C89.9554 49.0905 89.9993 48.3596 89.9993 45.009C89.9993 41.6576 89.9543 40.9275 89.595 38.4555C87.1493 21.558 75.123 7.36088 58.8124 2.10112C55.9354 1.1685 52.8739 0.526125 49.443 0.139125C48.8093 0.073125 45.3791 0.0015 43.3961 0ZM58.653 27.0638C59.9554 27.0638 60.1838 27.0836 60.4744 27.24C60.897 27.4507 61.2394 27.8557 61.3631 28.2776C61.4329 28.5064 61.4509 33.3975 61.4329 44.4191L61.4078 60.2347L58.6193 55.9597L55.8214 51.6848V40.1873C55.8214 32.7548 55.8563 28.5761 55.9091 28.374C56.0498 27.8816 56.3576 27.4942 56.7803 27.2659C57.1406 27.0806 57.2715 27.0638 58.653 27.0638Z" fill="white"/>
</g>
<defs>
<clipPath id="clip0_41_2">
<rect width="90" height="90" fill="white"/>
</clipPath>
</defs>
</svg>
