<?xml version="1.0" encoding="UTF-8" standalone="no"?>
<svg
   xmlns:dc="http://purl.org/dc/elements/1.1/"
   xmlns:cc="http://creativecommons.org/ns#"
   xmlns:rdf="http://www.w3.org/1999/02/22-rdf-syntax-ns#"
   xmlns:svg="http://www.w3.org/2000/svg"
   xmlns="http://www.w3.org/2000/svg"
   xmlns:sodipodi="http://sodipodi.sourceforge.net/DTD/sodipodi-0.dtd"
   xmlns:inkscape="http://www.inkscape.org/namespaces/inkscape"
   class="Nav__LogoMark-sc-11gnase-3 dUeojx"
   fill="currentColor"
   viewBox="0.34 -0.059977834648891726 33.11668247084116 39.96397783464889"
   width="2047"
   height="2500"
   version="1.1"
   id="svg845"
   sodipodi:docname="prisma.svg"
   inkscape:version="1.0.2-2 (e86c870879, 2021-01-15)">
  <metadata
     id="metadata851">
    <rdf:RDF>
      <cc:Work
         rdf:about="">
        <dc:format>image/svg+xml</dc:format>
        <dc:type
           rdf:resource="http://purl.org/dc/dcmitype/StillImage" />
      </cc:Work>
    </rdf:RDF>
  </metadata>
  <defs
     id="defs849" />
  <sodipodi:namedview
     pagecolor="#ffffff"
     bordercolor="#666666"
     borderopacity="1"
     objecttolerance="10"
     gridtolerance="10"
     guidetolerance="10"
     inkscape:pageopacity="0"
     inkscape:pageshadow="2"
     inkscape:window-width="1920"
     inkscape:window-height="1057"
     id="namedview847"
     showgrid="false"
     inkscape:zoom="0.3404"
     inkscape:cx="1023.5"
     inkscape:cy="1250"
     inkscape:window-x="-8"
     inkscape:window-y="-8"
     inkscape:window-maximized="1"
     inkscape:current-layer="svg845" />
  <path
     d="M32.908 30.475L19.151 1.26a2.208 2.208 0 0 0-1.88-1.257 2.183 2.183 0 0 0-2.01 1.042L.34 25.212a2.26 2.26 0 0 0 .025 2.426L7.66 38.935a2.346 2.346 0 0 0 2.635.969l21.17-6.262a2.32 2.32 0 0 0 1.457-1.258 2.27 2.27 0 0 0-.013-1.91zm-3.08 1.253L11.864 37.04c-.548.163-1.074-.312-.96-.865l6.418-30.731c.12-.575.914-.666 1.165-.134l11.881 25.23a.858.858 0 0 1-.541 1.188z"
     clip-rule="evenodd"
     fill-rule="evenodd"
     id="path843"
     style="fill:#ffffff" />
</svg>
