<svg width="81" height="81" viewBox="0 0 81 81" fill="none" xmlns="http://www.w3.org/2000/svg">
<path d="M48.0262 40.5135C48.0262 42.5144 47.2316 44.4333 45.8171 45.8485C44.4026 47.2636 42.484 48.0591 40.4831 48.06C38.4817 48.06 36.5622 47.2649 35.1469 45.8497C33.7317 44.4344 32.9366 42.515 32.9366 40.5135C32.9366 38.5126 33.7312 36.5937 35.1458 35.1785C36.5603 33.7634 38.4789 32.9679 40.4798 32.967C42.4812 32.967 44.4007 33.7621 45.8159 35.1773C47.2312 36.5926 48.0262 38.512 48.0262 40.5135ZM56.9632 4.43475C52.4205 4.43475 46.4771 7.67475 40.4662 13.284C34.4587 7.70513 28.512 4.50225 23.9726 4.50225C22.5889 4.50225 21.33 4.81613 20.2399 5.4405C15.5993 8.11688 14.5598 16.4565 16.956 26.9224C6.6825 30.0949 0 35.1675 0 40.5135C0 45.8798 6.71625 50.9659 17.0201 54.1148C14.6441 64.6211 15.7039 72.9743 20.3546 75.6473C21.4346 76.2784 22.6834 76.5754 24.0739 76.5754C28.6132 76.5754 34.56 73.3354 40.5709 67.7194C46.5784 73.3016 52.5251 76.5045 57.0645 76.5045C58.4483 76.5045 59.7071 76.2008 60.7972 75.5764C65.4345 72.9034 66.4774 64.5638 64.0811 54.0945C74.3175 50.949 81 45.8663 81 40.5135C81 35.1473 74.2838 30.0611 63.9799 26.9055C66.3559 16.4093 65.2961 8.04938 60.6454 5.373C59.5721 4.752 58.3268 4.43813 56.9632 4.43475ZM56.9464 8.1135V8.13375C57.7057 8.13375 58.3166 8.28225 58.8296 8.56238C61.0774 9.85163 62.0527 14.7555 61.2934 21.0634C61.1111 22.6159 60.8141 24.2528 60.4496 25.9234C57.2096 25.1269 53.6794 24.516 49.9635 24.1211C47.736 21.0668 45.4241 18.2925 43.0954 15.8625C48.4684 10.8675 53.514 8.127 56.9498 8.11688L56.9464 8.1135ZM23.9726 8.181C27.3881 8.181 32.4574 10.908 37.8439 15.876C35.5286 18.306 33.2201 21.0634 31.0264 24.1178C27.2902 24.5126 23.7566 25.1235 20.52 25.9335C20.142 24.2798 19.8619 22.68 19.6628 21.141C18.8865 14.8365 19.845 9.936 22.0725 8.62988C22.7137 8.32613 23.4225 8.19788 23.9726 8.181ZM40.4494 18.4748C41.985 20.0543 43.5206 21.8228 45.0394 23.7533C43.5544 23.6858 42.0356 23.6385 40.5 23.6385C38.9475 23.6385 37.4119 23.6723 35.91 23.7533C37.395 21.8228 38.9306 20.0576 40.4494 18.4748ZM40.5 27.3375C42.9975 27.3375 45.4849 27.4523 47.9317 27.6514C49.302 29.6156 50.6385 31.7115 51.9244 33.9289C53.1799 36.0889 54.3206 38.2826 55.3601 40.4966C54.3206 42.7073 53.1799 44.9179 51.9412 47.0779C50.6588 49.3054 49.3324 51.4249 47.9588 53.3891C45.5018 53.6018 43.011 53.7199 40.5 53.7199C38.0025 53.7199 35.5151 53.6018 33.0683 53.406C31.698 51.4418 30.3615 49.3425 29.0756 47.1285C27.8201 44.9685 26.6794 42.7748 25.6399 40.5608C26.6625 38.3434 27.8201 36.1294 29.0587 33.966C30.3412 31.7385 31.6676 29.6258 33.0412 27.6615C35.4982 27.4455 37.989 27.3308 40.5 27.3308V27.3375ZM28.2319 28.1948C27.4219 29.4671 26.6119 30.7699 25.8559 32.1098C25.0965 33.426 24.3878 34.749 23.7127 36.072C22.8184 33.858 22.059 31.6508 21.4312 29.5009C23.5912 28.9946 25.8694 28.5424 28.2319 28.1948ZM52.7344 28.1948C55.08 28.5424 57.3413 28.971 59.5046 29.5009C58.8971 31.6339 58.1378 33.8276 57.2771 36.0248C56.6021 34.7085 55.8934 33.3821 55.1171 32.0625C54.3577 30.7395 53.5478 29.4503 52.7378 28.1948H52.7344ZM63.072 30.4729C64.7055 30.9791 66.258 31.5428 67.7126 32.1536C73.5581 34.6511 77.3381 37.9181 77.3381 40.5101C77.3213 43.1021 73.5413 46.3826 67.6958 48.8633C66.2783 49.4708 64.7257 50.0175 63.1226 50.5271C62.1776 47.2939 60.9424 43.9256 59.4101 40.4696C60.9289 37.0373 62.1439 33.6859 63.072 30.4661V30.4729ZM17.8639 30.4864C18.8021 33.7264 20.0408 37.0913 21.5764 40.5439C20.0576 43.9762 18.8359 47.3276 17.9111 50.5474C16.2776 50.0411 14.7251 49.4741 13.2874 48.8599C7.44187 46.3725 3.66188 43.1021 3.66188 40.5101C3.66188 37.9181 7.44187 34.6309 13.2874 32.1536C14.7049 31.5461 16.2574 30.9994 17.8639 30.4864ZM57.2771 44.9314C58.1715 47.1488 58.9309 49.3594 59.5586 51.5059C57.3986 52.0358 55.1171 52.4846 52.7546 52.8221C53.5646 51.5565 54.3746 50.2504 55.134 48.9139C55.8934 47.5976 56.5988 46.2544 57.2771 44.9314ZM23.7127 44.9989C24.3878 46.3219 25.0965 47.6415 25.8727 48.9645C26.649 50.2808 27.4421 51.57 28.2521 52.8221C25.9065 52.4779 23.6452 52.0459 21.4819 51.5194C22.0894 49.3931 22.8521 47.1926 23.7094 44.9955L23.7127 44.9989ZM60.48 55.08C60.858 56.7439 61.155 58.347 61.3372 59.8826C62.1135 66.1871 61.155 71.0876 58.9275 72.3971C58.4314 72.7009 57.7867 72.8291 57.0274 72.8291C53.6119 72.8291 48.5426 70.1055 43.1561 65.1341C45.4714 62.7041 47.7799 59.9501 49.9736 56.8991C53.7098 56.5009 57.2434 55.89 60.48 55.08ZM20.5538 55.1138C23.7938 55.9035 27.324 56.5144 31.0399 56.9093C33.2674 59.9636 35.5793 62.7379 37.908 65.1645C32.5249 70.1696 27.4725 72.9101 24.0368 72.9101C23.2943 72.8933 22.6665 72.7414 22.1704 72.4646C19.9226 71.1821 18.9473 66.2749 19.7066 59.967C19.8889 58.4145 20.1893 56.781 20.5538 55.1138ZM35.9437 57.2738C37.4287 57.3413 38.9475 57.3885 40.4831 57.3885C42.0356 57.3885 43.5712 57.3548 45.0731 57.2738C43.5881 59.2043 42.0525 60.9694 40.5338 62.5556C38.9981 60.9694 37.4625 59.2043 35.9437 57.2738Z" fill="#61DAFB"/>
</svg>
