<svg width="86" height="86" viewBox="0 0 86 86" fill="none" xmlns="http://www.w3.org/2000/svg">
<g clip-path="url(#clip0_13_43)">
<path d="M43.0037 17.2C31.537 17.2 24.3703 22.9333 21.5037 34.4C25.8037 28.6667 30.8203 26.5167 36.5537 27.95C39.8252 28.767 42.1616 31.1392 44.7523 33.7693C48.9699 38.0478 53.8468 43 64.5037 43C75.9703 43 83.137 37.2667 86.0037 25.8C81.7037 31.5333 76.687 33.6833 70.9537 32.25C67.6821 31.433 65.3457 29.0608 62.755 26.4307C58.541 22.1522 53.6641 17.2 43.0037 17.2ZM21.5037 43C10.037 43 2.87033 48.7333 0.00366211 60.2C4.30366 54.4667 9.32033 52.3167 15.0537 53.75C18.3252 54.567 20.6616 56.9392 23.2523 59.5693C27.4699 63.8478 32.3468 68.8 43.0037 68.8C54.4703 68.8 61.637 63.0667 64.5037 51.6C60.2037 57.3333 55.187 59.4833 49.4537 58.05C46.1821 57.233 43.8457 54.8608 41.255 52.2307C37.041 47.9522 32.1641 43 21.5037 43Z" fill="#06B6D4"/>
</g>
<defs>
<clipPath id="clip0_13_43">
<rect width="86" height="86" fill="white"/>
</clipPath>
</defs>
</svg>
