<svg width="77" height="77" viewBox="0 0 77 77" fill="none" xmlns="http://www.w3.org/2000/svg">
<g clip-path="url(#clip0_13_49)">
<path d="M3.60938 0C1.61058 0 0 1.61058 0 3.60938V73.3906C0 75.3894 1.61058 77 3.60938 77H73.3906C75.3894 77 77 75.3894 77 73.3906V3.60938C77 1.61058 75.3894 0 73.3906 0H3.60938ZM59.3157 31.2812C61.2792 31.2812 63.0181 31.4 64.5356 31.6374C65.967 31.8518 67.3715 32.2175 68.7257 32.7282V40.6143C68.0757 40.1647 67.385 39.777 66.6628 39.4561C65.9179 39.1209 65.1489 38.8421 64.3624 38.6219C62.8724 38.2067 61.334 37.991 59.7873 37.9803C58.8248 37.9803 57.9489 38.0701 57.1597 38.2562C56.4562 38.4066 55.7814 38.6687 55.1609 39.0326C54.6155 39.3662 54.1984 39.7673 53.9 40.2325C53.5999 40.7014 53.4437 41.2479 53.4508 41.8046C53.4508 42.4334 53.6209 43.0013 53.9513 43.5018C54.285 44.0023 54.7598 44.4771 55.3726 44.9263C55.9854 45.3755 56.7297 45.8118 57.6056 46.2417C58.4815 46.6748 59.4729 47.1208 60.5765 47.5764C62.0845 48.2084 63.4384 48.8822 64.6383 49.5912C65.8382 50.3035 66.8681 51.1087 67.7279 52.0071C68.5878 52.9022 69.2422 53.9257 69.6978 55.0775C70.1534 56.2292 70.3844 57.5671 70.3844 59.0975C70.3844 61.2054 69.9834 62.9796 69.1877 64.4105C68.4103 65.8218 67.2946 67.0179 65.9409 67.8915C64.4817 68.8168 62.8644 69.465 61.1701 69.8037C59.3542 70.1887 57.4388 70.3812 55.4272 70.3812C53.4473 70.3899 51.471 70.2137 49.5238 69.855C47.8392 69.5637 46.2054 69.031 44.6728 68.2733V59.8354C47.5725 62.303 51.2508 63.6666 55.0582 63.6854C56.1266 63.6854 57.0602 63.5892 57.8559 63.3967C58.6548 63.2042 59.3189 62.9347 59.8547 62.5946C60.3872 62.2481 60.7851 61.8438 61.0514 61.3754C61.3457 60.83 61.4796 60.2125 61.4376 59.5942C61.3956 58.9759 61.1793 58.3821 60.814 57.8815C60.3373 57.2507 59.7542 56.7079 59.0911 56.2774C58.2686 55.7322 57.4027 55.2558 56.502 54.8529C55.4344 54.3653 54.3572 53.899 53.2712 53.454C50.3259 52.2252 48.1314 50.7205 46.6845 48.9463C45.2407 47.1721 44.5156 45.0257 44.5156 42.5136C44.5156 40.5437 44.9103 38.8529 45.6995 37.438C46.4888 36.0232 47.5603 34.8585 48.9207 33.9442C50.3595 32.995 51.9568 32.3115 53.6369 31.9261C55.4977 31.4874 57.4039 31.2709 59.3157 31.2812ZM10.8281 31.8844H41.5094V38.8337H30.4984V69.7812H21.7814V38.8337H10.8281V31.8844Z" fill="#3178C6"/>
</g>
<defs>
<clipPath id="clip0_13_49">
<rect width="77" height="77" fill="white"/>
</clipPath>
</defs>
</svg>
