<svg width="66" height="64" viewBox="0 0 66 64" fill="none" xmlns="http://www.w3.org/2000/svg">
<ellipse cx="33" cy="32" rx="33" ry="32" fill="#FF6600"/>
<path d="M19 49L8.92 20.44L7.192 20.104V15.832H18.712L19.384 19.624L15.688 20.44L23.224 42.76L30.664 20.44L26.296 19.576V15.832H37.48V20.104L35.704 20.44L25.768 49H19Z" fill="white"/>
<path d="M31.256 49L30.824 44.92L34.136 44.248V20.536L30.872 20.2V15.832H42.632C45.768 15.832 48.36 16.296 50.408 17.224C52.456 18.152 53.976 19.432 54.968 21.064C55.96 22.664 56.456 24.52 56.456 26.632C56.456 28.968 55.864 30.952 54.68 32.584C53.496 34.184 51.864 35.416 49.784 36.28L54.008 44.344L57.032 44.824V49H48.92L43.928 37.72C43.384 37.752 42.808 37.784 42.2 37.816C41.624 37.848 41.032 37.864 40.424 37.864V44.44L42.92 44.824V49H31.256ZM40.424 32.776H42.008C43.896 32.776 45.416 32.52 46.568 32.008C47.752 31.464 48.616 30.744 49.16 29.848C49.704 28.92 49.976 27.896 49.976 26.776C49.976 25.56 49.704 24.52 49.16 23.656C48.648 22.792 47.736 22.136 46.424 21.688C45.144 21.208 43.336 20.952 41 20.92H40.424V32.776Z" fill="white"/>
</svg>
